<mxfile host="app.diagrams.net" modified="2024-06-28T07:50:59.726Z" agent="Mozilla/5.0 (Windows NT 10.0; Win64; x64) AppleWebKit/537.36 (KHTML, like Gecko) Chrome/126.0.0.0 Safari/537.36" version="24.5.3" etag="jGR5qC77FxMnvdYJfvfk" type="github">
  <diagram name="Page-1" id="2CtTQp3Vw0ddXfev1S8G">
    <mxGraphModel>
      <root>
        <mxCell id="0" />
        <mxCell id="1" parent="0" />
        <mxCell id="2" value="Deliverables" style="whiteSpace=wrap;strokeWidth=2;verticalAlign=top;" vertex="1" parent="1">
          <mxGeometry x="639" width="1627" height="114" as="geometry" />
        </mxCell>
        <mxCell id="3" value="Static UI" style="rounded=1;absoluteArcSize=1;arcSize=14;whiteSpace=wrap;strokeWidth=2;" vertex="1" parent="1">
          <mxGeometry x="664" y="35" width="76" height="34" as="geometry" />
        </mxCell>
        <mxCell id="4" value="Responsive Design" style="rounded=1;absoluteArcSize=1;arcSize=14;whiteSpace=wrap;strokeWidth=2;" vertex="1" parent="1">
          <mxGeometry x="919" y="35" width="144" height="34" as="geometry" />
        </mxCell>
        <mxCell id="5" value="No Video Call Functionality" style="rounded=1;absoluteArcSize=1;arcSize=14;whiteSpace=wrap;strokeWidth=2;" vertex="1" parent="1">
          <mxGeometry x="1307" y="35" width="210" height="34" as="geometry" />
        </mxCell>
        <mxCell id="6" value="Final UI" style="rounded=1;absoluteArcSize=1;arcSize=14;whiteSpace=wrap;strokeWidth=2;" vertex="1" parent="1">
          <mxGeometry x="1864" y="35" width="69" height="34" as="geometry" />
        </mxCell>
        <mxCell id="7" value="Develop Frontend Interface" style="rounded=1;absoluteArcSize=1;arcSize=14;whiteSpace=wrap;strokeWidth=2;" vertex="1" parent="1">
          <mxGeometry x="2029" y="45" width="212" height="34" as="geometry" />
        </mxCell>
        <mxCell id="8" value="Development Process" style="whiteSpace=wrap;strokeWidth=2;verticalAlign=top;" vertex="1" parent="1">
          <mxGeometry x="100" y="134" width="1879" height="302" as="geometry" />
        </mxCell>
        <mxCell id="9" value="Next.js" style="rhombus;strokeWidth=2;whiteSpace=wrap;" vertex="1" parent="1">
          <mxGeometry x="428" y="264" width="100" height="100" as="geometry" />
        </mxCell>
        <mxCell id="10" value="Design Frontend Interface" style="rounded=1;absoluteArcSize=1;arcSize=14;whiteSpace=wrap;strokeWidth=2;" vertex="1" parent="1">
          <mxGeometry x="125" y="356" width="201" height="34" as="geometry" />
        </mxCell>
        <mxCell id="11" value="Development" style="rounded=1;absoluteArcSize=1;arcSize=14;whiteSpace=wrap;strokeWidth=2;" vertex="1" parent="1">
          <mxGeometry x="1844" y="289" width="109" height="34" as="geometry" />
        </mxCell>
        <mxCell id="12" value="Tailwind CSS" style="rhombus;strokeWidth=2;whiteSpace=wrap;" vertex="1" parent="1">
          <mxGeometry x="1567" y="169" width="138" height="138" as="geometry" />
        </mxCell>
        <mxCell id="13" value="Start" style="whiteSpace=wrap;strokeWidth=2;" vertex="1" parent="1">
          <mxGeometry y="356" width="50" height="34" as="geometry" />
        </mxCell>
        <mxCell id="14" value="Testing" style="rhombus;strokeWidth=2;whiteSpace=wrap;" vertex="1" parent="1">
          <mxGeometry x="2316" y="12" width="100" height="100" as="geometry" />
        </mxCell>
        <mxCell id="15" value="Review and Feedback" style="rounded=1;absoluteArcSize=1;arcSize=14;whiteSpace=wrap;strokeWidth=2;" vertex="1" parent="1">
          <mxGeometry x="2495" y="4" width="170" height="34" as="geometry" />
        </mxCell>
        <mxCell id="16" value="Implement Changes" style="rounded=1;absoluteArcSize=1;arcSize=14;whiteSpace=wrap;strokeWidth=2;" vertex="1" parent="1">
          <mxGeometry x="2715" y="4" width="156" height="34" as="geometry" />
        </mxCell>
        <mxCell id="17" value="Re-Test" style="rounded=1;absoluteArcSize=1;arcSize=14;whiteSpace=wrap;strokeWidth=2;" vertex="1" parent="1">
          <mxGeometry x="2546" y="88" width="67" height="34" as="geometry" />
        </mxCell>
        <mxCell id="18" value="End" style="whiteSpace=wrap;strokeWidth=2;" vertex="1" parent="1">
          <mxGeometry x="2920" y="4" width="41" height="34" as="geometry" />
        </mxCell>
        <mxCell id="19" value="" style="curved=1;startArrow=none;endArrow=block;exitX=1;exitY=0.49;entryX=0;entryY=0.49;" edge="1" parent="1" source="13" target="10">
          <mxGeometry relative="1" as="geometry">
            <Array as="points" />
          </mxGeometry>
        </mxCell>
        <mxCell id="20" value="" style="curved=1;startArrow=none;endArrow=block;exitX=0.98;exitY=0.99;entryX=0;entryY=0.88;" edge="1" parent="1" source="10" target="7">
          <mxGeometry relative="1" as="geometry">
            <Array as="points">
              <mxPoint x="377" y="399" />
              <mxPoint x="1979" y="399" />
              <mxPoint x="2004" y="78" />
            </Array>
          </mxGeometry>
        </mxCell>
        <mxCell id="21" value="" style="curved=1;startArrow=none;endArrow=block;exitX=1;exitY=0.5;entryX=0;entryY=0.5;" edge="1" parent="1" source="7" target="14">
          <mxGeometry relative="1" as="geometry">
            <Array as="points" />
          </mxGeometry>
        </mxCell>
        <mxCell id="22" value="Pass" style="curved=1;startArrow=none;endArrow=block;exitX=1;exitY=0.27;entryX=0;entryY=0.51;" edge="1" parent="1" source="14" target="15">
          <mxGeometry relative="1" as="geometry">
            <Array as="points">
              <mxPoint x="2455" y="21" />
            </Array>
          </mxGeometry>
        </mxCell>
        <mxCell id="23" value="" style="curved=1;startArrow=none;endArrow=block;exitX=1;exitY=0.51;entryX=0;entryY=0.51;" edge="1" parent="1" source="15" target="16">
          <mxGeometry relative="1" as="geometry">
            <Array as="points" />
          </mxGeometry>
        </mxCell>
        <mxCell id="24" value="Fail" style="curved=1;startArrow=none;endArrow=block;exitX=1;exitY=0.82;entryX=0.01;entryY=0.62;" edge="1" parent="1" source="14" target="17">
          <mxGeometry relative="1" as="geometry">
            <Array as="points">
              <mxPoint x="2455" y="120" />
            </Array>
          </mxGeometry>
        </mxCell>
        <mxCell id="25" value="" style="curved=1;startArrow=none;endArrow=block;exitX=0.01;exitY=0.29;entryX=1;entryY=0.59;" edge="1" parent="1" source="17" target="14">
          <mxGeometry relative="1" as="geometry">
            <Array as="points">
              <mxPoint x="2455" y="78" />
            </Array>
          </mxGeometry>
        </mxCell>
        <mxCell id="26" value="" style="curved=1;startArrow=none;endArrow=block;exitX=1;exitY=0.51;entryX=0.01;entryY=0.51;" edge="1" parent="1" source="16" target="18">
          <mxGeometry relative="1" as="geometry">
            <Array as="points" />
          </mxGeometry>
        </mxCell>
        <mxCell id="27" value="Next.js" style="curved=1;startArrow=none;endArrow=block;exitX=0.72;exitY=-0.01;entryX=0;entryY=0.5;" edge="1" parent="1" source="10" target="9">
          <mxGeometry relative="1" as="geometry">
            <Array as="points">
              <mxPoint x="377" y="314" />
            </Array>
          </mxGeometry>
        </mxCell>
        <mxCell id="28" value="Implement Designs" style="curved=1;startArrow=none;endArrow=block;exitX=1;exitY=0.63;entryX=0;entryY=0.97;" edge="1" parent="1" source="9" target="11">
          <mxGeometry relative="1" as="geometry">
            <Array as="points">
              <mxPoint x="583" y="342" />
              <mxPoint x="1775" y="342" />
            </Array>
          </mxGeometry>
        </mxCell>
        <mxCell id="29" value="Tailwind CSS" style="curved=1;startArrow=none;endArrow=block;exitX=0.14;exitY=0;entryX=1;entryY=0.56;" edge="1" parent="1" source="11" target="12">
          <mxGeometry relative="1" as="geometry">
            <Array as="points">
              <mxPoint x="1775" y="254" />
            </Array>
          </mxGeometry>
        </mxCell>
        <mxCell id="30" value="" style="curved=1;startArrow=none;endArrow=block;exitX=1;exitY=0.7;entryX=0;entryY=0.34;" edge="1" parent="1" source="12" target="11">
          <mxGeometry relative="1" as="geometry">
            <Array as="points">
              <mxPoint x="1775" y="293" />
            </Array>
          </mxGeometry>
        </mxCell>
        <mxCell id="31" value="Static UI" style="curved=1;startArrow=none;endArrow=block;exitX=1;exitY=0.08;entryX=0.42;entryY=0.99;" edge="1" parent="1" source="9" target="3">
          <mxGeometry relative="1" as="geometry">
            <Array as="points">
              <mxPoint x="583" y="225" />
              <mxPoint x="639" y="225" />
            </Array>
          </mxGeometry>
        </mxCell>
        <mxCell id="32" value="Responsive Design" style="curved=1;startArrow=none;endArrow=block;exitX=1;exitY=0.5;entryX=0;entryY=0.5;" edge="1" parent="1" source="3" target="4">
          <mxGeometry relative="1" as="geometry">
            <Array as="points" />
          </mxGeometry>
        </mxCell>
        <mxCell id="33" value="No Video Call Functionality" style="curved=1;startArrow=none;endArrow=block;exitX=1;exitY=0.5;entryX=0;entryY=0.5;" edge="1" parent="1" source="4" target="5">
          <mxGeometry relative="1" as="geometry">
            <Array as="points" />
          </mxGeometry>
        </mxCell>
        <mxCell id="34" value="" style="curved=1;startArrow=none;endArrow=block;exitX=1;exitY=0.5;entryX=0.25;entryY=0;" edge="1" parent="1" source="5" target="12">
          <mxGeometry relative="1" as="geometry">
            <Array as="points">
              <mxPoint x="1542" y="52" />
            </Array>
          </mxGeometry>
        </mxCell>
        <mxCell id="35" value="Final UI" style="curved=1;startArrow=none;endArrow=block;exitX=1;exitY=0.35;entryX=0.3;entryY=0.99;" edge="1" parent="1" source="12" target="6">
          <mxGeometry relative="1" as="geometry">
            <Array as="points">
              <mxPoint x="1775" y="197" />
            </Array>
          </mxGeometry>
        </mxCell>
        <mxCell id="36" value="" style="curved=1;startArrow=none;endArrow=block;exitX=1.01;exitY=0.5;entryX=0;entryY=0.26;" edge="1" parent="1" source="6" target="7">
          <mxGeometry relative="1" as="geometry">
            <Array as="points">
              <mxPoint x="2004" y="52" />
            </Array>
          </mxGeometry>
        </mxCell>
      </root>
    </mxGraphModel>
  </diagram>
</mxfile>
